<?xml version="1.0" encoding="utf-8"?>
<!-- Generator: Adobe Illustrator 27.1.1, SVG Export Plug-In . SVG Version: 6.00 Build 0)  -->
<svg version="1.1" id="Layer_1" xmlns="http://www.w3.org/2000/svg" xmlns:xlink="http://www.w3.org/1999/xlink" x="0px" y="0px"
	 viewBox="0 0 360 104" style="enable-background:new 0 0 360 104;" xml:space="preserve">
<style type="text/css">
	.st0{fill:none;}
	.st1{fill:#1D1D1D;}
	.st2{fill:#E61D2B;}
</style>
<g>
	<g>
		<g>
			<rect x="195.5" y="22.2" class="st0" width="160.9" height="52.9"/>
			<path class="st1" d="M199.9,70.7V41.6c0-2,1.6-3.8,4-3.8s3.6,1.2,4,3V42h0.2c2.4-3,6-4.6,10.6-4.6c8.8,0,14.8,5.2,14.8,12.4v20.6
				c0,2.2-1.4,3.8-4,3.8c-2.4,0-4-1.6-4-3.8V50.8c0-4.4-3.4-7.4-8.8-7.4c-5.2,0-8.8,3.6-8.8,8v19c0,2.2-1.6,3.8-4,3.8
				C201.3,74.5,199.9,72.9,199.9,70.7z"/>
			<path class="st1" d="M242,70.7V26c0-2.2,1.6-3.8,4-3.8c2.6,0,4,1.6,4,3.8v44.9c0,2.2-1.6,3.8-4,3.8C243.6,74.5,242,72.9,242,70.7
				z"/>
			<path class="st1" d="M257.5,28.8c0-2.4,2.4-4.4,5-4.4c3,0,5.2,2,5.2,4.4s-2.2,4.4-5.2,4.4C259.7,33.2,257.5,31.4,257.5,28.8z
				 M258.5,70.7V41.6c0-2,1.6-3.8,4-3.8c2.6,0,4,1.6,4,3.8v29.1c0,2.2-1.6,3.8-4,3.8C260.1,74.5,258.5,72.9,258.5,70.7z"/>
			<path class="st1" d="M275.1,70.7V41.6c0-2,1.6-3.8,4-3.8c2.4,0,3.6,1.2,4,3V42h0.2c2.4-3,6-4.6,10.6-4.6
				c8.8,0,14.8,5.2,14.8,12.4v20.6c0,2.2-1.4,3.8-4,3.8c-2.4,0-4-1.6-4-3.8V50.8c0-4.4-3.4-7.4-8.8-7.4c-5.2,0-8.8,3.6-8.8,8v19
				c0,2.2-1.6,3.8-4,3.8C276.5,74.5,275.1,72.9,275.1,70.7z"/>
			<path class="st1" d="M315.2,56.2c0-9.8,7.4-18.6,19-18.6s18.4,8.4,18.4,17.6c0,2.6-1.4,3.6-4.4,3.6h-24.5
				c0.4,5.8,4.8,9.8,11.4,9.8c3.8,0,6.8-1,10.4-3.6c1.2-0.8,2.2-1.2,3-1.2c2,0,3.4,1.2,3.4,3c0,1.4-1.2,2.8-3,4
				c-3.2,2-8.6,3.8-14.2,3.8C322.8,74.9,315.2,66.8,315.2,56.2z M344.4,53.6c-0.4-5.8-4.6-10.2-10.2-10.2s-9.8,4.4-10.2,10.2H344.4z
				"/>
		</g>
		<g>
			<g>
				<g>
					<g>
						<g>
							<g>
								<path class="st2" d="M166.3,60.8c0,0.2,0,0.6,0.2,0.8c1.6,2.2,3.8,3.6,6.6,4c0.6,0,1.2-0.4,1.2-1c0.2-0.6-0.4-1.2-1-1.2
									c-2-0.2-3.8-1.4-5-3c-0.4-0.4-1-0.6-1.6-0.2C166.5,60.2,166.3,60.6,166.3,60.8z"/>
							</g>
						</g>
					</g>
				</g>
			</g>
			<g>
				<path class="st2" d="M188.1,42.8c-3.6-3.6-8.2-5.6-13.2-5.6c-5,0-9.8,2-13.2,5.6C158.3,46.4,156,51,156,56s2,9.8,5.6,13.2
					c3.6,3.4,8.2,5.6,13.2,5.6c5,0,9.8-2,13.2-5.6C195.5,62,195.5,50,188.1,42.8z M184.3,65.4c-2.4,2.6-5.8,4-9.4,4s-6.8-1.4-9.4-4
					c-2.6-2.4-3.8-5.8-3.8-9.4s1.4-7,3.8-9.4c2.6-2.6,5.8-4,9.4-4s6.8,1.4,9.4,4C189.5,51.8,189.5,60.2,184.3,65.4z"/>
				<path class="st2" d="M164.3,65.6l-11,12.6l-0.2,0.2c-1.6,2-1.6,4.8,0.2,6c1.8,1.2,4.4,0.8,6-1.2l10.8-13.8c-1-0.6-2.6-1-3.4-1.8
					C165.9,67,165.1,66.4,164.3,65.6z"/>
			</g>
		</g>
	</g>
	<g>
		<rect x="3.9" y="27" class="st0" width="136.9" height="70.1"/>
		<path class="st1" d="M15.8,71.3V36.6H7.1c-2.2,0-3.6-1.2-3.6-3c0-1.8,1.6-3,3.6-3H32c2.2,0,3.6,1.2,3.6,3c0,1.8-1.6,3-3.6,3h-8.8
			v34.7c0,2.2-1.4,3.6-3.6,3.6C17.2,74.7,15.8,73.5,15.8,71.3z"/>
		<path class="st1" d="M34.4,71.3V44.8c0-1.8,1.4-3.4,3.6-3.4c2.2,0,3.4,1.2,3.6,2.8v2h0.2c2-3.2,5-5,8-5c2.6,0,4.2,1.6,4.2,3.4
			c0,1.4-1,2.6-4.4,3.4c-5.8,1.2-7.8,4.2-7.8,8.8v14.6c0,2-1.4,3.4-3.6,3.4C35.8,74.7,34.4,73.3,34.4,71.3z"/>
		<path class="st1" d="M55.8,58c0-9.4,6.6-17,16.4-17c4.4,0,7.4,1.4,10.2,4.4h0.2V44c0.2-1.8,1.4-2.8,3.4-2.8c2.2,0,3.6,1.6,3.6,3.4
			v26.5c0,2-1.4,3.4-3.6,3.4c-2.2,0-3.2-1.2-3.4-2.8v-1.4h-0.2c-2.4,3-5.8,4.4-10,4.4C62.5,75.1,55.8,67.9,55.8,58z M82.5,58
			c0-6.4-3.4-11.2-9.6-11.2c-6,0-9.4,5-9.4,11.2c0,6.4,3.4,11.2,9.6,11.2C79.1,69.3,82.5,64.4,82.5,58z"/>
		<path class="st1" d="M94.7,72.1c0-1.2,0.8-2,2.4-4.4l16-20H98.9c-2,0-3.6-1-3.6-3c0-1.8,1.6-2.8,3.8-2.8H120
			c2.2,0,3.6,0.8,3.6,2.4c0,1.2-0.6,2-1.8,3.4l-16.8,21h16c2,0,3.6,1,3.6,3s-1.6,2.8-3.6,2.8H98.3C96.1,74.5,94.7,73.5,94.7,72.1z
			 M106.3,36.8l-6.2-2.4c-2.2-0.8-2.6-1.8-2.6-3.2c0-1.2,1.2-2.6,2.8-2.6c1,0,2.2,0.4,2.8,0.6l6.6,2.6l6.4-2.6
			c1.2-0.6,2.2-0.8,3-0.8c1.6,0,2.8,1.2,2.8,2.6c0,1.8-1,2.6-2.4,3l-5.8,2.2c-1.4,0.6-3.2,1.2-3.8,1.2
			C108.9,37.8,107.1,37.2,106.3,36.8z"/>
		<path class="st1" d="M128.4,33.2c0-2.2,2.2-4,4.6-4c2.6,0,4.6,1.8,4.6,4c0,2.2-2,4-4.6,4C130.4,37,128.4,35.4,128.4,33.2z
			 M129.4,71.3V44.8c0-1.8,1.4-3.4,3.6-3.4c2.4,0,3.6,1.6,3.6,3.4v26.5c0,2-1.4,3.4-3.6,3.4C130.8,74.7,129.4,73.3,129.4,71.3z"/>
	</g>
	<circle class="st1" cx="147.4" cy="71.3" r="3.8"/>
</g>
</svg>
