<?xml version="1.0" encoding="utf-8"?>
<!-- Generator: Adobe Illustrator 27.1.1, SVG Export Plug-In . SVG Version: 6.00 Build 0)  -->
<svg version="1.1" id="Layer_1" xmlns="http://www.w3.org/2000/svg" xmlns:xlink="http://www.w3.org/1999/xlink" x="0px" y="0px"
	 viewBox="0 0 180 52" style="enable-background:new 0 0 180 52;" xml:space="preserve">
<style type="text/css">
	.st0{fill:none;}
	.st1{fill:#1D1D1D;}
	.st2{fill:#E61D2B;}
</style>
<g>
	<g>
		<g>
			<rect x="99.18" y="8.69" class="st0" width="80.35" height="26.4"/>
			<path class="st1" d="M101.32,32.96V18.43c0-1.04,0.78-1.89,1.98-1.89s1.82,0.61,1.98,1.55v0.61h0.08
				c1.24-1.55,2.99-2.29,5.31-2.29c4.42,0,7.44,2.56,7.44,6.2v10.35c0,1.08-0.74,1.92-1.98,1.92c-1.2,0-1.98-0.84-1.98-1.92v-9.78
				c0-2.16-1.71-3.71-4.42-3.71c-2.6,0-4.42,1.75-4.42,4.01v9.47c0,1.11-0.78,1.92-2.02,1.92
				C102.09,34.88,101.32,34.07,101.32,32.96z"/>
			<path class="st1" d="M122.33,32.96V10.58c0-1.08,0.78-1.89,1.98-1.89c1.28,0,2.02,0.81,2.02,1.89v22.38
				c0,1.11-0.78,1.92-2.02,1.92C123.11,34.88,122.33,34.07,122.33,32.96z"/>
			<path class="st1" d="M130.01,12.03c0-1.21,1.16-2.19,2.52-2.19c1.47,0,2.56,0.98,2.56,2.19c0,1.25-1.12,2.19-2.56,2.19
				C131.17,14.22,130.01,13.28,130.01,12.03z M130.55,32.96V18.43c0-1.04,0.78-1.89,1.98-1.89c1.28,0,2.02,0.84,2.02,1.89v14.53
				c0,1.11-0.78,1.92-2.02,1.92C131.32,34.88,130.55,34.07,130.55,32.96z"/>
			<path class="st1" d="M138.81,32.96V18.43c0-1.04,0.78-1.89,1.98-1.89c1.2,0,1.82,0.61,1.98,1.55v0.61h0.08
				c1.24-1.55,2.99-2.29,5.31-2.29c4.42,0,7.44,2.56,7.44,6.2v10.35c0,1.08-0.74,1.92-1.98,1.92c-1.2,0-1.98-0.84-1.98-1.92v-9.78
				c0-2.16-1.71-3.71-4.42-3.71c-2.6,0-4.42,1.75-4.42,4.01v9.47c0,1.11-0.78,1.92-2.02,1.92
				C139.58,34.88,138.81,34.07,138.81,32.96z"/>
			<path class="st1" d="M158.89,25.71c0-4.85,3.68-9.3,9.5-9.3c5.78,0,9.19,4.21,9.19,8.83c0,1.28-0.74,1.79-2.21,1.79h-12.18
				c0.19,2.87,2.44,4.92,5.66,4.92c1.86,0,3.37-0.51,5.2-1.79c0.58-0.37,1.08-0.57,1.51-0.57c1.01,0,1.71,0.64,1.71,1.52
				c0,0.67-0.58,1.42-1.51,2.02c-1.59,1.04-4.26,1.89-7.06,1.89C162.61,35.02,158.89,31.01,158.89,25.71z M173.43,24.43
				c-0.15-2.9-2.29-5.09-5.12-5.09c-2.79,0-4.92,2.16-5.12,5.09H173.43z"/>
		</g>
		<g>
			<g>
				<g>
					<g>
						<g>
							<g>
								<path class="st2" d="M84.55,28.03c-0.02,0.15,0.02,0.3,0.1,0.42c0.79,1.07,1.94,1.76,3.26,1.96
									c0.31,0.05,0.6-0.17,0.64-0.48c0.05-0.31-0.17-0.6-0.47-0.64c-1.01-0.15-1.91-0.69-2.52-1.51c-0.18-0.25-0.54-0.3-0.79-0.12
									C84.65,27.75,84.57,27.89,84.55,28.03z"/>
							</g>
						</g>
					</g>
				</g>
			</g>
			<g>
				<path class="st2" d="M95.49,18.97c-1.77-1.78-4.13-2.75-6.64-2.75c-2.51,0-4.87,0.98-6.64,2.75c-1.77,1.77-2.75,4.13-2.75,6.64
					c0,2.51,0.98,4.87,2.75,6.64c1.77,1.77,4.13,2.75,6.64,2.75c2.51,0,4.87-0.98,6.64-2.75C99.15,28.6,99.15,22.64,95.49,18.97z
					 M93.54,30.32c-1.25,1.26-2.92,1.95-4.7,1.95c-1.78,0-3.44-0.69-4.7-1.95c-1.26-1.25-1.95-2.92-1.95-4.7
					c0-1.78,0.69-3.45,1.95-4.7c1.26-1.26,2.92-1.95,4.7-1.95c1.78,0,3.44,0.69,4.7,1.95C96.13,23.51,96.13,27.73,93.54,30.32z"/>
				<path class="st2" d="M83.56,30.42l-5.5,6.32c-0.03,0.03-0.06,0.07-0.08,0.1c-0.8,1.02-0.75,2.38,0.12,3.05
					c0.87,0.67,2.23,0.39,3.03-0.63l5.42-6.88c-0.48-0.26-1.28-0.51-1.71-0.86C84.4,31.16,83.91,30.84,83.56,30.42z"/>
			</g>
		</g>
	</g>
	<g>
		<rect x="2.36" y="8.69" class="st0" width="75.04" height="38.51"/>
		<path class="st1" d="M8.84,32.93V13.95H4.07c-1.16,0-2.02-0.64-2.02-1.65c0-0.98,0.85-1.62,2.02-1.62h13.65
			c1.16,0,2.02,0.64,2.02,1.62c0,1.01-0.85,1.65-2.02,1.65h-4.81v18.98c0,1.21-0.78,1.96-2.02,1.96
			C9.61,34.88,8.84,34.14,8.84,32.93z"/>
		<path class="st1" d="M19.03,32.96V18.43c0-1.04,0.78-1.89,1.98-1.89s1.82,0.61,1.94,1.55l0.04,1.11h0.08
			c1.12-1.72,2.79-2.8,4.42-2.8c1.43,0,2.33,0.84,2.33,1.82c0,0.81-0.5,1.45-2.44,1.85c-3.14,0.61-4.34,2.33-4.34,4.82v8.06
			c0,1.11-0.78,1.92-2.02,1.92C19.81,34.88,19.03,34.07,19.03,32.96z"/>
		<path class="st1" d="M30.86,25.71c0-5.19,3.68-9.3,9-9.3c2.4,0,4.07,0.77,5.58,2.46h0.08l0.04-0.78c0.16-0.94,0.74-1.55,1.9-1.55
			c1.24,0,1.98,0.84,1.98,1.89v14.53c0,1.08-0.74,1.92-1.98,1.92c-1.16,0-1.74-0.61-1.9-1.55l-0.04-0.77h-0.08
			c-1.28,1.65-3.14,2.46-5.51,2.46C34.46,35.02,30.86,31.07,30.86,25.71z M45.44,25.71c0-3.47-1.82-6.17-5.23-6.17
			c-3.26,0-5.2,2.73-5.2,6.17c0,3.54,1.9,6.17,5.23,6.17C43.57,31.88,45.44,29.25,45.44,25.71z"/>
		<path class="st1" d="M52.14,33.37c0-0.71,0.39-1.15,1.36-2.39l8.76-11.02h-7.79c-1.09,0-1.98-0.54-1.98-1.62
			c0-1.04,0.89-1.58,2.06-1.58h11.44c1.24,0,1.94,0.47,1.94,1.28c0,0.64-0.35,1.08-1.01,1.89l-9.27,11.56h8.76
			c1.09,0,2.02,0.57,2.02,1.62s-0.93,1.58-2.02,1.58H54.08C52.92,34.68,52.14,34.17,52.14,33.37z M58.46,14.05l-3.45-1.28
			c-1.2-0.44-1.47-0.98-1.47-1.72c0-0.71,0.66-1.38,1.51-1.38c0.54,0,1.2,0.2,1.55,0.34l3.68,1.45l3.53-1.38
			c0.7-0.3,1.2-0.41,1.67-0.41c0.89,0,1.51,0.67,1.51,1.38c0,1.01-0.58,1.38-1.36,1.68l-3.22,1.18c-0.74,0.3-1.71,0.67-2.13,0.67
			C59.93,14.59,58.96,14.25,58.46,14.05z"/>
		<path class="st1" d="M70.59,12.03c0-1.21,1.16-2.19,2.52-2.19c1.47,0,2.56,0.98,2.56,2.19c0,1.25-1.12,2.19-2.56,2.19
			C71.76,14.22,70.59,13.28,70.59,12.03z M71.14,32.96V18.43c0-1.04,0.78-1.89,1.98-1.89c1.28,0,2.02,0.84,2.02,1.89v14.53
			c0,1.11-0.78,1.92-2.02,1.92C71.91,34.88,71.14,34.07,71.14,32.96z"/>
	</g>
</g>
<g>
</g>
<g>
</g>
<g>
</g>
<g>
</g>
<g>
</g>
<g>
</g>
</svg>
