<?xml version="1.0" encoding="utf-8"?>
<!-- Generator: Adobe Illustrator 27.1.1, SVG Export Plug-In . SVG Version: 6.00 Build 0)  -->
<svg version="1.1" id="Layer_1" xmlns="http://www.w3.org/2000/svg" xmlns:xlink="http://www.w3.org/1999/xlink" x="0px" y="0px"
	 viewBox="0 0 180 52" style="enable-background:new 0 0 180 52;" xml:space="preserve">
<style type="text/css">
	.st0{fill:#FFFFFF;}
	.st1{fill:#E61D2B;}
</style>
<g>
	<g>
		<g>
			<rect x="98.2" y="11.2" class="st0" width="80.3" height="26.4"/>
			<path class="st0" d="M100.4,35.4V20.9c0-1,0.8-1.9,2-1.9s1.8,0.6,2,1.5v0.6h0.1c1.2-1.5,3-2.3,5.3-2.3c4.4,0,7.4,2.6,7.4,6.2
				v10.3c0,1.1-0.7,1.9-2,1.9c-1.2,0-2-0.8-2-1.9v-9.8c0-2.2-1.7-3.7-4.4-3.7c-2.6,0-4.4,1.8-4.4,4v9.5c0,1.1-0.8,1.9-2,1.9
				C101.1,37.3,100.4,36.5,100.4,35.4z"/>
			<path class="st0" d="M121.4,35.4V13.1c0-1.1,0.8-1.9,2-1.9c1.3,0,2,0.8,2,1.9v22.4c0,1.1-0.8,1.9-2,1.9
				C122.2,37.3,121.4,36.5,121.4,35.4z"/>
			<path class="st0" d="M129.1,14.5c0-1.2,1.2-2.2,2.5-2.2c1.5,0,2.6,1,2.6,2.2c0,1.2-1.1,2.2-2.6,2.2
				C130.2,16.7,129.1,15.8,129.1,14.5z M129.6,35.4V20.9c0-1,0.8-1.9,2-1.9c1.3,0,2,0.8,2,1.9v14.5c0,1.1-0.8,1.9-2,1.9
				C130.4,37.3,129.6,36.5,129.6,35.4z"/>
			<path class="st0" d="M137.9,35.4V20.9c0-1,0.8-1.9,2-1.9s1.8,0.6,2,1.5v0.6h0.1c1.2-1.5,3-2.3,5.3-2.3c4.4,0,7.4,2.6,7.4,6.2
				v10.3c0,1.1-0.7,1.9-2,1.9c-1.2,0-2-0.8-2-1.9v-9.8c0-2.2-1.7-3.7-4.4-3.7c-2.6,0-4.4,1.8-4.4,4v9.5c0,1.1-0.8,1.9-2,1.9
				C138.6,37.3,137.9,36.5,137.9,35.4z"/>
			<path class="st0" d="M157.9,28.2c0-4.9,3.7-9.3,9.5-9.3c5.8,0,9.2,4.2,9.2,8.8c0,1.3-0.7,1.8-2.2,1.8h-12.2
				c0.2,2.9,2.4,4.9,5.7,4.9c1.9,0,3.4-0.5,5.2-1.8c0.6-0.4,1.1-0.6,1.5-0.6c1,0,1.7,0.6,1.7,1.5c0,0.7-0.6,1.4-1.5,2
				c-1.6,1-4.3,1.9-7.1,1.9C161.7,37.5,157.9,33.5,157.9,28.2z M172.5,26.9c-0.2-2.9-2.3-5.1-5.1-5.1c-2.8,0-4.9,2.2-5.1,5.1H172.5z
				"/>
		</g>
		<g>
			<g>
				<g>
					<g>
						<g>
							<g>
								<path class="st1" d="M83.6,30.5c0,0.1,0,0.3,0.1,0.4c0.8,1.1,1.9,1.8,3.3,2c0.3,0,0.6-0.2,0.6-0.5c0.1-0.3-0.2-0.6-0.5-0.6
									c-1-0.1-1.9-0.7-2.5-1.5c-0.2-0.2-0.5-0.3-0.8-0.1C83.7,30.2,83.6,30.4,83.6,30.5z"/>
							</g>
						</g>
					</g>
				</g>
			</g>
			<g>
				<path class="st1" d="M94.5,21.5c-1.8-1.8-4.1-2.8-6.6-2.8s-4.9,1-6.6,2.8s-2.8,4.1-2.8,6.6s1,4.9,2.8,6.6s4.1,2.8,6.6,2.8
					s4.9-1,6.6-2.8C98.2,31.1,98.2,25.1,94.5,21.5z M92.6,32.8c-1.2,1.3-2.9,2-4.7,2s-3.4-0.7-4.7-2c-1.3-1.2-1.9-2.9-1.9-4.7
					s0.7-3.5,1.9-4.7c1.3-1.3,2.9-2,4.7-2s3.4,0.7,4.7,2C95.2,26,95.2,30.2,92.6,32.8z"/>
				<path class="st1" d="M82.6,32.9l-5.5,6.3c0,0-0.1,0.1-0.1,0.1c-0.8,1-0.8,2.4,0.1,3s2.2,0.4,3-0.6l5.4-6.9
					c-0.5-0.3-1.3-0.5-1.7-0.9C83.4,33.6,83,33.3,82.6,32.9z"/>
			</g>
		</g>
	</g>
	<g>
		<rect x="2.6" y="13.6" class="st0" width="68.3" height="35"/>
		<path class="st0" d="M8.5,35.7V18.4H4.2c-1.1,0-1.8-0.6-1.8-1.5c0-0.9,0.8-1.5,1.8-1.5h12.4c1.1,0,1.8,0.6,1.8,1.5
			c0,0.9-0.8,1.5-1.8,1.5h-4.4v17.3c0,1.1-0.7,1.8-1.8,1.8C9.2,37.4,8.5,36.8,8.5,35.7z"/>
		<path class="st0" d="M17.8,35.7V22.5c0-0.9,0.7-1.7,1.8-1.7s1.7,0.6,1.8,1.4l0,1h0.1c1-1.6,2.5-2.5,4-2.5c1.3,0,2.1,0.8,2.1,1.7
			c0,0.7-0.5,1.3-2.2,1.7c-2.9,0.6-3.9,2.1-3.9,4.4v7.3c0,1-0.7,1.7-1.8,1.7C18.5,37.4,17.8,36.7,17.8,35.7z"/>
		<path class="st0" d="M28.5,29.1c0-4.7,3.3-8.5,8.2-8.5c2.2,0,3.7,0.7,5.1,2.2h0.1l0-0.7c0.1-0.9,0.7-1.4,1.7-1.4
			c1.1,0,1.8,0.8,1.8,1.7v13.2c0,1-0.7,1.7-1.8,1.7c-1.1,0-1.6-0.6-1.7-1.4l0-0.7h-0.1c-1.2,1.5-2.9,2.2-5,2.2
			C31.8,37.6,28.5,34,28.5,29.1z M41.8,29.1c0-3.2-1.7-5.6-4.8-5.6c-3,0-4.7,2.5-4.7,5.6c0,3.2,1.7,5.6,4.8,5.6
			C40.1,34.7,41.8,32.3,41.8,29.1z"/>
		<path class="st0" d="M47.9,36.1c0-0.6,0.4-1,1.2-2.2l8-10H50c-1,0-1.8-0.5-1.8-1.5c0-0.9,0.8-1.4,1.9-1.4h10.4
			c1.1,0,1.8,0.4,1.8,1.2c0,0.6-0.3,1-0.9,1.7l-8.4,10.5h8c1,0,1.8,0.5,1.8,1.5s-0.8,1.4-1.8,1.4H49.7
			C48.6,37.3,47.9,36.8,47.9,36.1z M53.7,18.5l-3.1-1.2c-1.1-0.4-1.3-0.9-1.3-1.6c0-0.6,0.6-1.3,1.4-1.3c0.5,0,1.1,0.2,1.4,0.3
			l3.3,1.3l3.2-1.3c0.6-0.3,1.1-0.4,1.5-0.4c0.8,0,1.4,0.6,1.4,1.3c0,0.9-0.5,1.3-1.2,1.5l-2.9,1.1c-0.7,0.3-1.6,0.6-1.9,0.6
			C55,19,54.1,18.7,53.7,18.5z"/>
		<path class="st0" d="M64.7,16.7c0-1.1,1.1-2,2.3-2c1.3,0,2.3,0.9,2.3,2c0,1.1-1,2-2.3,2C65.7,18.6,64.7,17.8,64.7,16.7z
			 M65.2,35.7V22.5c0-0.9,0.7-1.7,1.8-1.7c1.2,0,1.8,0.8,1.8,1.7v13.2c0,1-0.7,1.7-1.8,1.7C65.9,37.4,65.2,36.7,65.2,35.7z"/>
	</g>
	<circle class="st0" cx="74.2" cy="35.7" r="1.9"/>
</g>
</svg>
