<?xml version="1.0" encoding="utf-8"?>
<!-- Generator: Adobe Illustrator 27.1.1, SVG Export Plug-In . SVG Version: 6.00 Build 0)  -->
<svg version="1.1" id="Layer_1" xmlns="http://www.w3.org/2000/svg" xmlns:xlink="http://www.w3.org/1999/xlink" x="0px" y="0px"
	 viewBox="0 0 180 52" style="enable-background:new 0 0 180 52;" xml:space="preserve">
<style type="text/css">
	.st0{fill:none;}
	.st1{fill:#1D1D1D;}
	.st2{fill:#E61D2B;}
</style>
<g>
	<g>
		<g>
			<rect x="98.23" y="11.16" class="st0" width="80.35" height="26.4"/>
			<path class="st1" d="M100.37,35.43V20.9c0-1.04,0.78-1.89,1.98-1.89s1.82,0.61,1.98,1.55v0.61h0.08
				c1.24-1.55,2.99-2.29,5.31-2.29c4.42,0,7.44,2.56,7.44,6.2v10.35c0,1.08-0.74,1.92-1.98,1.92c-1.2,0-1.98-0.84-1.98-1.92v-9.78
				c0-2.16-1.71-3.71-4.42-3.71c-2.6,0-4.42,1.75-4.42,4.01v9.47c0,1.11-0.78,1.92-2.02,1.92
				C101.14,37.35,100.37,36.54,100.37,35.43z"/>
			<path class="st1" d="M121.38,35.43V13.05c0-1.08,0.78-1.89,1.98-1.89c1.28,0,2.02,0.81,2.02,1.89v22.38
				c0,1.11-0.78,1.92-2.02,1.92C122.15,37.35,121.38,36.54,121.38,35.43z"/>
			<path class="st1" d="M129.05,14.5c0-1.21,1.16-2.19,2.52-2.19c1.47,0,2.56,0.98,2.56,2.19c0,1.25-1.12,2.19-2.56,2.19
				C130.22,16.69,129.05,15.75,129.05,14.5z M129.6,35.43V20.9c0-1.04,0.78-1.89,1.98-1.89c1.28,0,2.02,0.84,2.02,1.89v14.53
				c0,1.11-0.78,1.92-2.02,1.92C130.37,37.35,129.6,36.54,129.6,35.43z"/>
			<path class="st1" d="M137.85,35.43V20.9c0-1.04,0.78-1.89,1.98-1.89s1.82,0.61,1.98,1.55v0.61h0.08
				c1.24-1.55,2.99-2.29,5.31-2.29c4.42,0,7.44,2.56,7.44,6.2v10.35c0,1.08-0.74,1.92-1.98,1.92c-1.2,0-1.98-0.84-1.98-1.92v-9.78
				c0-2.16-1.71-3.71-4.42-3.71c-2.6,0-4.42,1.75-4.42,4.01v9.47c0,1.11-0.78,1.92-2.02,1.92
				C138.63,37.35,137.85,36.54,137.85,35.43z"/>
			<path class="st1" d="M157.94,28.19c0-4.85,3.68-9.3,9.5-9.3c5.78,0,9.19,4.21,9.19,8.83c0,1.28-0.74,1.79-2.21,1.79h-12.17
				c0.19,2.87,2.44,4.92,5.66,4.92c1.86,0,3.37-0.51,5.2-1.79c0.58-0.37,1.09-0.57,1.51-0.57c1.01,0,1.71,0.64,1.71,1.52
				c0,0.67-0.58,1.42-1.51,2.02c-1.59,1.04-4.26,1.89-7.06,1.89C161.66,37.49,157.94,33.48,157.94,28.19z M172.48,26.9
				c-0.16-2.9-2.29-5.09-5.12-5.09c-2.79,0-4.92,2.16-5.12,5.09H172.48z"/>
		</g>
		<g>
			<g>
				<g>
					<g>
						<g>
							<g>
								<path class="st2" d="M83.6,30.51c-0.02,0.15,0.02,0.3,0.1,0.42c0.79,1.07,1.94,1.76,3.26,1.96c0.31,0.05,0.6-0.17,0.64-0.48
									c0.05-0.31-0.17-0.6-0.47-0.64c-1.01-0.15-1.91-0.69-2.52-1.51c-0.18-0.25-0.54-0.3-0.79-0.12
									C83.7,30.22,83.62,30.36,83.6,30.51z"/>
							</g>
						</g>
					</g>
				</g>
			</g>
			<g>
				<path class="st2" d="M94.53,21.45c-1.77-1.78-4.13-2.75-6.64-2.75c-2.51,0-4.87,0.98-6.64,2.75c-1.77,1.77-2.75,4.13-2.75,6.64
					c0,2.51,0.98,4.87,2.75,6.64c1.77,1.77,4.13,2.75,6.64,2.75c2.51,0,4.87-0.98,6.64-2.75C98.2,31.07,98.2,25.11,94.53,21.45z
					 M92.59,32.79c-1.25,1.26-2.92,1.95-4.7,1.95c-1.78,0-3.44-0.69-4.7-1.95c-1.26-1.25-1.95-2.92-1.95-4.7
					c0-1.78,0.69-3.45,1.95-4.7c1.26-1.26,2.92-1.95,4.7-1.95c1.78,0,3.44,0.69,4.7,1.95C95.18,25.98,95.18,30.2,92.59,32.79z"/>
				<path class="st2" d="M82.6,32.89l-5.5,6.32c-0.03,0.03-0.06,0.07-0.08,0.1c-0.8,1.02-0.75,2.38,0.12,3.05
					c0.87,0.67,2.23,0.39,3.03-0.63l5.42-6.88c-0.48-0.26-1.28-0.51-1.71-0.86C83.45,33.63,82.96,33.31,82.6,32.89z"/>
			</g>
		</g>
	</g>
	<g>
		<rect x="1.41" y="11.16" class="st0" width="75.04" height="38.51"/>
		<path class="st1" d="M7.89,35.4V16.42H3.12c-1.16,0-2.02-0.64-2.02-1.65c0-0.98,0.85-1.62,2.02-1.62h13.65
			c1.16,0,2.02,0.64,2.02,1.62c0,1.01-0.85,1.65-2.02,1.65h-4.81V35.4c0,1.21-0.78,1.96-2.02,1.96C8.66,37.35,7.89,36.61,7.89,35.4z
			"/>
		<path class="st1" d="M18.08,35.43V20.9c0-1.04,0.78-1.89,1.98-1.89s1.82,0.61,1.94,1.55l0.04,1.11h0.08
			c1.12-1.72,2.79-2.8,4.42-2.8c1.43,0,2.33,0.84,2.33,1.82c0,0.81-0.5,1.45-2.44,1.85c-3.14,0.61-4.34,2.33-4.34,4.82v8.06
			c0,1.11-0.78,1.92-2.02,1.92C18.86,37.35,18.08,36.54,18.08,35.43z"/>
		<path class="st1" d="M29.91,28.19c0-5.19,3.68-9.3,9-9.3c2.4,0,4.07,0.77,5.58,2.46h0.08l0.04-0.78c0.16-0.94,0.74-1.55,1.9-1.55
			c1.24,0,1.98,0.84,1.98,1.89v14.53c0,1.08-0.74,1.92-1.98,1.92c-1.16,0-1.74-0.61-1.9-1.55l-0.04-0.77h-0.08
			c-1.28,1.65-3.14,2.46-5.51,2.46C33.51,37.49,29.91,33.54,29.91,28.19z M44.48,28.19c0-3.47-1.82-6.17-5.23-6.17
			c-3.26,0-5.2,2.73-5.2,6.17c0,3.54,1.9,6.17,5.23,6.17C42.62,34.35,44.48,31.72,44.48,28.19z"/>
		<path class="st1" d="M51.19,35.84c0-0.71,0.39-1.15,1.36-2.39l8.76-11.02h-7.79c-1.09,0-1.98-0.54-1.98-1.62
			c0-1.04,0.89-1.58,2.06-1.58h11.44c1.24,0,1.94,0.47,1.94,1.28c0,0.64-0.35,1.08-1.01,1.89L56.7,33.95h8.76
			c1.09,0,2.02,0.57,2.02,1.62s-0.93,1.58-2.02,1.58H53.13C51.97,37.15,51.19,36.65,51.19,35.84z M57.51,16.52l-3.45-1.28
			c-1.2-0.44-1.47-0.98-1.47-1.72c0-0.71,0.66-1.38,1.51-1.38c0.54,0,1.2,0.2,1.55,0.34l3.68,1.45l3.53-1.38
			c0.7-0.3,1.2-0.41,1.67-0.41c0.89,0,1.51,0.67,1.51,1.38c0,1.01-0.58,1.38-1.36,1.68l-3.22,1.18c-0.74,0.3-1.71,0.67-2.13,0.67
			C58.98,17.06,58.01,16.73,57.51,16.52z"/>
		<path class="st1" d="M69.64,14.5c0-1.21,1.16-2.19,2.52-2.19c1.47,0,2.56,0.98,2.56,2.19c0,1.25-1.12,2.19-2.56,2.19
			C70.81,16.69,69.64,15.75,69.64,14.5z M70.19,35.43V20.9c0-1.04,0.78-1.89,1.98-1.89c1.28,0,2.02,0.84,2.02,1.89v14.53
			c0,1.11-0.78,1.92-2.02,1.92C70.96,37.35,70.19,36.54,70.19,35.43z"/>
	</g>
	<circle class="st1" cx="76.46" cy="36.21" r="1.04"/>
</g>
<g>
</g>
<g>
</g>
<g>
</g>
<g>
</g>
<g>
</g>
<g>
</g>
</svg>
